<?xml version="1.0" encoding="iso-8859-1"?>
<!-- Uploaded to: SVG Repo, www.svgrepo.com, Generator: SVG Repo Mixer Tools -->
<svg height="800px" width="800px" version="1.1" id="Layer_1" xmlns="http://www.w3.org/2000/svg" xmlns:xlink="http://www.w3.org/1999/xlink" 
	 viewBox="0 0 512 512" xml:space="preserve">
<g transform="translate(1 1)">
	<polygon style="fill:#E2E3E5;" points="464.067,127 344.6,7.533 250.733,7.533 250.733,502.467 464.067,502.467 	"/>
	<polygon style="fill:#CCCCCC;" points="438.467,127 319,7.533 225.133,7.533 225.133,502.467 438.467,502.467 	"/>
	<polygon style="fill:#FFFFFF;" points="267.8,127 148.333,7.533 54.467,7.533 54.467,502.467 267.8,502.467 	"/>
	<polygon style="fill:#E2E3E5;" points="412.867,127 310.467,7.533 80.067,7.533 80.067,502.467 412.867,502.467 	"/>
	<polygon style="fill:#F0F0F0;" points="319,7.533 319,127 438.467,127 	"/>
	<g>
		<path style="fill:#B6B6B6;" d="M438.467,511h-384c-5.12,0-8.533-3.413-8.533-8.533V7.533c0-5.12,3.413-8.533,8.533-8.533H319
			c2.56,0,4.267,0.853,5.973,2.56L444.44,121.027c1.707,1.707,2.56,3.413,2.56,5.973v375.467C447,507.587,443.587,511,438.467,511z
			 M63,493.933h366.933v-363.52L315.587,16.067H63V493.933z"/>
		<path style="fill:#B6B6B6;" d="M438.467,135.533H319c-5.12,0-8.533-3.413-8.533-8.533V7.533C310.467,2.413,313.88-1,319-1
			c5.12,0,8.533,3.413,8.533,8.533v110.933h110.933c5.12,0,8.533,3.413,8.533,8.533S443.587,135.533,438.467,135.533z"/>
		<path style="fill:#B6B6B6;" d="M353.133,195.267H216.6c-5.12,0-8.533-3.413-8.533-8.533c0-5.12,3.413-8.533,8.533-8.533h136.533
			c5.12,0,8.533,3.413,8.533,8.533C361.667,191.853,358.253,195.267,353.133,195.267z"/>
		<path style="fill:#B6B6B6;" d="M148.333,203.8c-2.56,0-4.267-0.853-5.973-2.56l-17.067-17.067c-3.413-3.413-3.413-8.533,0-11.947
			s8.533-3.413,11.947,0l11.947,11.947l36.693-29.013c3.413-2.56,9.387-2.56,11.947,1.707c2.56,3.413,2.56,9.387-1.707,11.947
			l-42.667,34.133C151.747,202.947,150.04,203.8,148.333,203.8z"/>
		<path style="fill:#B6B6B6;" d="M353.133,289.133H216.6c-5.12,0-8.533-3.413-8.533-8.533c0-5.12,3.413-8.533,8.533-8.533h136.533
			c5.12,0,8.533,3.413,8.533,8.533S358.253,289.133,353.133,289.133z"/>
		<path style="fill:#B6B6B6;" d="M148.333,297.667c-2.56,0-4.267-0.853-5.973-2.56l-17.067-17.067
			c-3.413-3.413-3.413-8.533,0-11.947s8.533-3.413,11.947,0l11.947,11.947l36.693-29.013c3.413-2.56,9.387-2.56,11.947,1.707
			c2.56,3.413,2.56,9.387-1.707,11.947l-42.667,34.133C151.747,296.813,150.04,297.667,148.333,297.667z"/>
		<path style="fill:#B6B6B6;" d="M353.133,383H216.6c-5.12,0-8.533-3.413-8.533-8.533c0-5.12,3.413-8.533,8.533-8.533h136.533
			c5.12,0,8.533,3.413,8.533,8.533C361.667,379.587,358.253,383,353.133,383z"/>
		<path style="fill:#B6B6B6;" d="M148.333,391.533c-2.56,0-4.267-0.853-5.973-2.56l-17.067-17.067
			c-3.413-3.413-3.413-8.533,0-11.947c3.413-3.413,8.533-3.413,11.947,0l11.947,11.947l36.693-29.013
			c3.413-2.56,9.387-2.56,11.947,1.707c2.56,3.413,2.56,9.387-1.707,11.947l-42.667,34.133
			C151.747,390.68,150.04,391.533,148.333,391.533z"/>
	</g>
</g>
</svg>